<svg xmlns="http://www.w3.org/2000/svg" xmlns:xlink="http://www.w3.org/1999/xlink" viewBox="0 0 600 400"><defs><clipPath id="clip-path"><path d="M464.45,175.88V374.1c0,6-4.58,10.82-10.24,10.82H171.69a9.85,9.85,0,0,1-6.66-2.6,11.05,11.05,0,0,1-3.58-8.22V175.88c0-6,4.59-10.82,10.24-10.82H454.21a9.83,9.83,0,0,1,6.66,2.6A11,11,0,0,1,464.45,175.88Z" style="fill:none"/></clipPath><linearGradient id="linear-gradient" x1="471.53" y1="239.07" x2="566.41" y2="239.07" gradientUnits="userSpaceOnUse"><stop offset="0" stop-color="#00a7e1"/><stop offset="0" stop-color="#5ee466"/><stop offset="0.96" stop-color="#00c955"/></linearGradient></defs><g style="isolation:isolate"><g id="Layer_1" data-name="Layer 1"><g style="clip-path:url(#clip-path)"><path d="M359.82,364.71c-6.46,2.18-42.28-53-42.28-53-13.85-16-1.42-68.52,11.11-50.09,0,0,32.6,59.05,36.11,63.8C369.13,331.35,383.67,356.64,359.82,364.71Z" style="fill:#04d361"/><path d="M319.45,419.47H225s-7.25-3.2-.95-17.15c2.37-5.2,1.34-18.62.95-37-.79-36.42-11.59-96.86,1.73-103.79,8-4.17,24.93-9.65,37.23-13.4l2.16-.64c7.18-2.14,12.31-3.56,12.31-3.56a145.22,145.22,0,0,1,18,4.44l2,.61c3.15,1,6.66,2.08,10.55,3.41,21.12,7.19,18.75,4.63,21.55,31C332.84,304.5,319.45,419.47,319.45,419.47Z" style="fill:#04d361"/><path d="M298.5,248.94a17,17,0,0,1-5.33,11.34A17.3,17.3,0,0,1,264,248.1c.74-.21,1.45-.43,2.15-.64,7.19-2.14,12.32-3.56,12.32-3.56a145.22,145.22,0,0,1,18,4.44C297.11,248.52,297.8,248.73,298.5,248.94Z" style="fill:#f2f2fa"/><path d="M296.43,211.13l-1.49,28.77-.43,8.21a13.13,13.13,0,0,1-13.09,12.43,13.11,13.11,0,0,1-13.11-13.45l.37-14.65.62-24.34Z" style="fill:#fbd5d9"/><path d="M296.43,216.88,294.94,244c-12.73.5-22-4.67-26.26-11.57l.62-18.53Z" style="fill:#ffa4ad"/><path d="M260.85,183s-12.2-1.53-10.81,13.78c1.09,11.87,17.19,27.71,17.19,27.71S277.4,188.68,260.85,183Z" style="fill:#8f4a3f"/><path d="M310.67,194a51.15,51.15,0,0,1-3.16,5.33,9.75,9.75,0,0,0-1.64,5.86c-.21-3.34-2.41-6.14-4.31-8.88s-3.63-6.07-2.72-9.28,6.43-7.94,9.82-5.95C312.43,183.28,312.14,190.62,310.67,194Z" style="fill:#0e1235"/><path d="M306.53,194.6a98.71,98.71,0,0,1-.37,19.75c-1.52,12-1,26.08-18.63,27-18.84,1-25.08-20.11-25.08-20.11s-10-1.87-10.69-8.64,6.31-7.16,8.59-5.25c0,0,2.58-25.25,25.89-25.25C306.79,182.1,306.53,194.6,306.53,194.6Z" style="fill:#fbd5d9"/><path d="M284.39,213.86a1.87,1.87,0,1,1-1.87-1.87A1.87,1.87,0,0,1,284.39,213.86Z" style="fill:#9a5449"/><path d="M301.27,213.86A1.87,1.87,0,1,1,299.4,212,1.87,1.87,0,0,1,301.27,213.86Z" style="fill:#9a5449"/><path d="M275.73,207.36a7.59,7.59,0,0,1,8.66-2.92" style="fill:none;stroke:#561e15;stroke-linecap:round;stroke-linejoin:round;stroke-width:1.027400016784668px"/><path d="M294.55,204.37s4.25-3.89,8.44.37" style="fill:none;stroke:#561e15;stroke-linecap:round;stroke-linejoin:round;stroke-width:1.027400016784668px"/><path d="M290.81,209s2,5.17,3.74,8.37-3.36,4.65-3.36,4.65" style="fill:none;stroke:#d66d78;stroke-linecap:round;stroke-linejoin:round;stroke-width:0.7706000208854675px"/><path d="M284.06,227.79s4.16,4,9.51,1.57" style="fill:none;stroke:#d66d78;stroke-linecap:round;stroke-linejoin:round;stroke-width:0.7706000208854675px"/><path d="M260,214.8s-.06-5.81-4.4-4.23" style="fill:none;stroke:#d66d78;stroke-linecap:round;stroke-linejoin:round;stroke-width:0.7706000208854675px"/><path d="M265.74,187.81s10.59,10.8,4.79,14.94a18.43,18.43,0,0,0-7.46,11.11s.14-2.29-2.73-6.5S251.21,188.21,265.74,187.81Z" style="fill:#8f4a3f"/><path d="M359.82,364.71c7.7,5,66.24-57.59,66.24-57.59l-10.39-13.61s-44.51,28-50.91,31.93C355.54,331.16,333.91,347.83,359.82,364.71Z" style="fill:#04d361"/><path d="M328.69,328.31s2.62-28.63,2.17-37.71c0,0,3.72,24,3.81,46.23Z" style="fill:#03a14a"/><path d="M229.77,318.55s13.71-58.78-1-58.09c0,0-4.79.58-14.15,15.13-6.55,10.17-13.72,27.8-26.8,56.48-6.17,13.55-13.9,31.9.44,32.88,7.76.53,15.9-3.72,20.7-12.64C217.79,336,229.77,318.55,229.77,318.55Z" style="fill:#04d361"/><path d="M242,391.71l74.61-17.6S293.18,391.71,242,391.71Z" style="fill:#03a14a"/><path d="M222,330.36S234,309,240.44,298.6l-15,81.66S224,346.91,222,330.36Z" style="fill:#03a14a"/><path d="M270,358.17,225.36,379l2.29-21.46Z" style="fill:#03a14a"/><path d="M277.29,354.6h0l7.37-40.28h0a4.45,4.45,0,0,1,4.39-3.66h15.66a4.47,4.47,0,0,1,4.39,5.28h0l-7.37,40.28a4.46,4.46,0,0,1-4.39,3.66H281.68A4.46,4.46,0,0,1,277.29,354.6Z" style="fill:#04d361;stroke:#04d361"/><path d="M299.28,362.23H283.62a5.11,5.11,0,0,1-5-6L286,315.92a5.09,5.09,0,0,1,5-4.18h15.65a5.09,5.09,0,0,1,5,6l-7.37,40.29A5.09,5.09,0,0,1,299.28,362.23Z" style="fill:#fff"/><path d="M287.64,326h0l1.8-9.84h0a.34.34,0,0,1,.34-.27h2.8a.34.34,0,0,1,.33.4h0l-1.8,9.84h0a.32.32,0,0,1-.33.27H288A.34.34,0,0,1,287.64,326Z" style="fill:#04d361;stroke:#04d361"/><path d="M255.27,340.44a61.8,61.8,0,0,0,13.48-2c2.51-.78,7.49-1.68,9.14-4.07s1.51-7.62,3.17-7.84c1.28-.17,3.84,3.9,3.18,6.65s-1,4.18-1.94,5.38c-.32.41,10.44,1.17,17.25-.33,4.67-1,3.29,3.6.12,5.06,0,0,1.13,2.82-2.18,3.78,0,0,0,3.78-3.13,4a4.86,4.86,0,0,1-3.7,3.42,52.82,52.82,0,0,1-16,.81c-3.07-.28-17.28,2.21-17.28,2.21Z" style="fill:#ffcad0"/><path d="M187.85,365.17c10.9,1.91,75.84-5.44,75.84-5.44L262.08,337s-52.92,2.47-60,1.83C178.77,336.74,174.29,362.8,187.85,365.17Z" style="fill:#04d361"/><path d="M268.31,170.65c1.12-1.12,2.36-2.31,3.93-2.48s3.35,1.29,2.83,2.79a80.11,80.11,0,0,1,16.63-5.16,6.86,6.86,0,0,1,4.3.13c1.32.63,2.13,2.47,1.24,3.61,2.76,1,5.83.36,8.77,0s6.29-.19,8.29,2c1.85,2,1.89,5.07,1.83,7.81a54.79,54.79,0,0,1-1,11.23,27.62,27.62,0,0,1-8.36,14.16c1.24-4.22-1-8.91-4.43-11.62s-7.92-3.8-12.29-4.3a57.54,57.54,0,0,0-15.78.39c-3.93.65-9.54,3.46-13.45,1.68C252.12,187,265,174,268.31,170.65Z" style="fill:#8f4a3f"/><path d="M404.89,304.47s14.79-11.69,15.18-15c.74-6.31,3-11.25,16.53-15.43a3.84,3.84,0,0,1-.83,4.19,14,14,0,0,1-3.67,3.2s3.58,1.37,8.92-2.8,7.59-7.8,9.84-6.91c0,0,2.65-2.4,3.9-2a1.1,1.1,0,0,1,.75,1.27c2.09-.32,1.66,5.7-2.05,10.6-5.34,7-12,13.1-17.46,15.1-4.09,1.5-21,18.74-21,18.74Z" style="fill:#ffcad0"/></g><path d="M385.69,210.11h-15.8a5.32,5.32,0,0,1-5.32-5.32V189a5.32,5.32,0,0,1,5.32-5.33h15.8A5.32,5.32,0,0,1,391,189v15.82A5.32,5.32,0,0,1,385.69,210.11Z" style="fill:#6842c2"/><path d="M386.78,195.51l-.39-1.73a.64.64,0,0,0-.75-.48l-1,.24a.63.63,0,0,1-.67-.29,7.07,7.07,0,0,0-1.46-1.67.64.64,0,0,1-.17-.77l.51-1.05a.63.63,0,0,0-.29-.84l-1.61-.78a.63.63,0,0,0-.84.29l-.55,1.15a.63.63,0,0,1-.67.34,8.93,8.93,0,0,0-1-.07,8.79,8.79,0,0,0-1,.07.62.62,0,0,1-.67-.34l-.55-1.15a.63.63,0,0,0-.84-.29l-1.6.78a.64.64,0,0,0-.3.84l.52,1.05a.67.67,0,0,1-.18.77,7.28,7.28,0,0,0-1.46,1.67.62.62,0,0,1-.67.29l-1-.24a.65.65,0,0,0-.76.48l-.39,1.73a.63.63,0,0,0,.47.76l1.3.29c0,.18,0,.36,0,.54a6.94,6.94,0,0,0,.44,2.47.66.66,0,0,1-.2.73l-.5.4a.63.63,0,0,0-.1.88l1.06,1.4a.63.63,0,0,0,.89.1l.34-.28a.65.65,0,0,1,.8,0,7.52,7.52,0,0,0,2.47,1.27.64.64,0,0,1,.47.61v.36a.63.63,0,0,0,.63.63h1.78a.63.63,0,0,0,.63-.63v-.36a.64.64,0,0,1,.47-.61,7.43,7.43,0,0,0,2.47-1.27.63.63,0,0,1,.8,0l.34.28a.63.63,0,0,0,.89-.1l1.11-1.39a.62.62,0,0,0-.1-.88l-.5-.4a.64.64,0,0,1-.19-.73,7.2,7.2,0,0,0,.43-2.47c0-.18,0-.36,0-.54l1.29-.29A.65.65,0,0,0,386.78,195.51Zm-9,6.1a4.51,4.51,0,1,1,4.51-4.51A4.5,4.5,0,0,1,377.79,201.61Z" style="fill:#fff"/><path d="M328.56,284.36s.46,3.24-3.33,3.17c0,0,3.25,0,3.17,3.08a3.68,3.68,0,0,1,3.28-2.93S329.15,288.25,328.56,284.36Z" style="fill:#91a8f6"/><path d="M453.61,206.73a3.86,3.86,0,1,1-3.86-3.86A3.86,3.86,0,0,1,453.61,206.73Zm-1.91,0a1.95,1.95,0,1,0-1.95,1.94A1.95,1.95,0,0,0,451.7,206.73Z" style="fill:#9871f5;stroke:#9871f5"/><path d="M164,129.38a1,1,0,0,0-.95,1v2.22a1,1,0,0,0,1.91,0v-2.22A1,1,0,0,0,164,129.38Z" style="fill:#9871f5;stroke:#9871f5"/><path d="M161.5,127.16h-2.22a1,1,0,0,0,0,1.91h2.22a1,1,0,1,0,0-1.91Z" style="fill:#9871f5;stroke:#9871f5"/><path d="M164,122.57a1,1,0,0,0-.95,1v2.22a1,1,0,1,0,1.91,0v-2.22A1,1,0,0,0,164,122.57Z" style="fill:#9871f5;stroke:#9871f5"/><path d="M168.72,127H166.5a1,1,0,0,0,0,1.91h2.22a1,1,0,1,0,0-1.91Z" style="fill:#9871f5;stroke:#9871f5"/><path d="M497.67,181.11a1,1,0,0,0-.95.95v2.22a1,1,0,0,0,1.91,0v-2.22A1,1,0,0,0,497.67,181.11Z" style="fill:#9871f5;stroke:#9871f5"/><path d="M495.17,178.88H493a1,1,0,0,0,0,1.91h2.22a1,1,0,1,0,0-1.91Z" style="fill:#9871f5;stroke:#9871f5"/><path d="M497.67,174.29a1,1,0,0,0-.95,1v2.22a1,1,0,1,0,1.91,0v-2.22A1,1,0,0,0,497.67,174.29Z" style="fill:#9871f5;stroke:#9871f5"/><path d="M502.39,178.73h-2.22a1,1,0,0,0,0,1.91h2.22a1,1,0,1,0,0-1.91Z" style="fill:#9871f5;stroke:#9871f5"/><path d="M315.3,20H293.45a1,1,0,1,0,0,1.91H315.3a1,1,0,0,0,0-1.91Z" style="fill:#9871f5;stroke:#9871f5"/><path d="M286.5,19.94h-4.27a1,1,0,1,0,0,1.92h4.27a1,1,0,0,0,0-1.92Z" style="fill:#9871f5;stroke:#9871f5"/><path d="M305,27.56a1,1,0,0,1-.95,1h-2.74a1,1,0,0,1,0-1.92h2.74A1,1,0,0,1,305,27.56Zm-7.51,0a1,1,0,0,1-.95,1h-4.78a1,1,0,1,1,0-1.92h4.78A1,1,0,0,1,297.52,27.56Zm-9.56,0a1,1,0,0,1-.95,1h-4.78a1,1,0,1,1,0-1.92H287A1,1,0,0,1,288,27.56Z" style="fill:#9871f5;stroke:#9871f5"/><path d="M550.13,120.08a3.38,3.38,0,1,0,3.37-3.38A3.37,3.37,0,0,0,550.13,120.08Z" style="fill:#9871f5;stroke:#9871f5"/><path d="M107.7,285.44h21.85a1,1,0,0,0,0-1.91H107.7a1,1,0,0,0,0,1.91Z" style="fill:#9871f5;stroke:#9871f5"/><path d="M96.48,285.44h4.27a1,1,0,0,0,0-1.91H96.48a1,1,0,1,0,0,1.91Z" style="fill:#9871f5;stroke:#9871f5"/><path d="M520.51,301s1.3,9.31-9.57,9.1c0,0,9.34.09,9.09,8.83,0,0,.84-6.88,9.42-8.41C529.45,310.5,522.2,312.16,520.51,301Z" style="fill:#9871f5;stroke:#9871f5"/><path d="M572.43,169.67s1.3,9.31-9.57,9.09c0,0,9.34.1,9.09,8.83,0,0,.84-6.87,9.41-8.4C581.36,179.19,574.12,180.85,572.43,169.67Z" style="fill:#9871f5;stroke:#9871f5"/><path d="M227.52,43.62s1.31,9.31-9.57,9.1c0,0,9.34.09,9.1,8.83,0,0,.84-6.87,9.41-8.41C236.46,53.14,229.22,54.8,227.52,43.62Z" style="fill:#9871f5;stroke:#9871f5"/><path d="M133.91,69.33s1.3,9.31-9.57,9.1c0,0,9.34.09,9.1,8.83,0,0,.84-6.87,9.41-8.41C142.85,78.85,135.6,80.52,133.91,69.33Z" style="fill:#9871f5;stroke:#9871f5"/><path d="M190.65,29.54s.45,3.25-3.34,3.17c0,0,3.26,0,3.17,3.08a3.71,3.71,0,0,1,3.28-2.93S191.24,33.44,190.65,29.54Z" style="fill:#9871f5;stroke:#9871f5"/><path d="M454.21,165.06s.45,3.25-3.34,3.17c0,0,3.26,0,3.17,3.08a3.68,3.68,0,0,1,3.28-2.93S454.8,169,454.21,165.06Z" style="fill:#9871f5;stroke:#9871f5"/><path d="M45.42,196.88s.45,3.24-3.34,3.17c0,0,3.26,0,3.17,3.08a3.7,3.7,0,0,1,3.28-2.94S46,200.77,45.42,196.88Z" style="fill:#9871f5;stroke:#9871f5"/><path d="M199.72,232.06H178.51a4.92,4.92,0,0,1-.16-9.84,7.61,7.61,0,0,1,14-4,5.53,5.53,0,0,1,6.14,4h1.24a4.92,4.92,0,1,1,0,9.84Zm-21.21-8.39a3.47,3.47,0,1,0,0,6.93h21.21a3.47,3.47,0,0,0,0-6.93h-2.45l-.1-.61a4.06,4.06,0,0,0-5-3.35l-.53.12-.27-.48a6.17,6.17,0,0,0-11.55,3c0,.18,0,.36,0,.53l.07.79Z" style="fill:#9871f5;stroke:#9871f5"/><path d="M578.16,52.53H557a4.92,4.92,0,0,1-.16-9.84,7.62,7.62,0,0,1,14-4,5.54,5.54,0,0,1,6.14,4h1.24a4.92,4.92,0,1,1,0,9.84ZM557,44.15a3.47,3.47,0,1,0,0,6.93h21.21a3.47,3.47,0,0,0,0-6.93h-2.45l-.1-.62a4.08,4.08,0,0,0-5-3.35l-.53.13-.27-.48a6.16,6.16,0,0,0-11.55,3c0,.18,0,.36,0,.54l.07.79Z" style="fill:#9871f5;stroke:#9871f5"/><path d="M249.69,106.69H228.48a4.92,4.92,0,0,1-.16-9.84,7.62,7.62,0,0,1,14-4,5.51,5.51,0,0,1,6.13,4h1.24a4.92,4.92,0,1,1,0,9.84Zm-21.21-8.38a3.47,3.47,0,1,0,0,6.93h21.21a3.47,3.47,0,1,0,0-6.93h-2.45l-.09-.62a4.08,4.08,0,0,0-5-3.35l-.54.13-.27-.48a6.16,6.16,0,0,0-11.54,3c0,.18,0,.36,0,.54l.07.79Z" style="fill:#9871f5;stroke:#9871f5"/><path d="M278.85,387.78H408.29c3.61,0,4.72-2.93,4.72-6.54H272.31A6.54,6.54,0,0,0,278.85,387.78Z" style="fill:#6842c2"/><path d="M271.34,381.24h45.88c0,3.61-3.32,6.54-7.42,6.54H271.15C266.92,387.72,267.11,381.24,271.34,381.24Z" style="fill:#6842c2"/><path d="M320.09,383.14H413a5.73,5.73,0,0,0,5.64-4.67l12.53-53.75a5.75,5.75,0,0,0-5.64-6.82H332.61a5.74,5.74,0,0,0-5.64,4.68l-12.53,53.74A5.75,5.75,0,0,0,320.09,383.14Z" style="fill:#9871f5"/><path d="M327,322.58a5.74,5.74,0,0,1,2.29-3.59,5.71,5.71,0,0,1,2.29,5.73L319,378.47a5.73,5.73,0,0,1-2.29,3.58,5.73,5.73,0,0,1-2.3-5.73Z" style="fill:#6842c2"/><path d="M385.41,357.38H370.17a5.66,5.66,0,0,1-5.66-5.66h0a5.65,5.65,0,0,1,5.66-5.66h15.24a5.65,5.65,0,0,1,5.66,5.66h0A5.66,5.66,0,0,1,385.41,357.38Z" style="fill:#6842c2;stroke:#6842c2"/><path d="M285.2,383h-4.58a1.63,1.63,0,0,1-1.63-1.63h0a1.63,1.63,0,0,1,1.63-1.63h4.58a1.63,1.63,0,0,1,1.63,1.63h0A1.63,1.63,0,0,1,285.2,383Z" style="fill:#6842c2"/><path d="M294.12,383h-4.57a1.63,1.63,0,0,1-1.63-1.63h0a1.63,1.63,0,0,1,1.63-1.63h4.57a1.63,1.63,0,0,1,1.63,1.63h0A1.63,1.63,0,0,1,294.12,383Z" style="fill:#6842c2"/><path d="M303.05,383h-4.57a1.63,1.63,0,0,1-1.64-1.63h0a1.63,1.63,0,0,1,1.64-1.63h4.57a1.63,1.63,0,0,1,1.63,1.63h0A1.63,1.63,0,0,1,303.05,383Z" style="fill:#6842c2"/><path d="M312,383H307.4a1.63,1.63,0,0,1-1.63-1.63h0a1.63,1.63,0,0,1,1.63-1.63H312a1.64,1.64,0,0,1,1.64,1.63h0A1.64,1.64,0,0,1,312,383Z" style="fill:#6842c2"/><path d="M482.29,395.26h-391a3.91,3.91,0,0,1-3.92-3.92h0a3.92,3.92,0,0,1,3.92-3.92h391a3.93,3.93,0,0,1,3.92,3.92h0A3.92,3.92,0,0,1,482.29,395.26Z" style="fill:#47248f"/><path d="M149.82,363.33s-2.88-21.62-8.09-26.94" style="fill:none;stroke:#47248f;stroke-linecap:round;stroke-miterlimit:10;stroke-width:0.826915px"/><path d="M142.57,323.53c1.39,4.61,1.11,8.77-.64,9.29s-4.28-2.78-5.67-7.39a.65.65,0,0,1,0-.13c-1.18-4.11,5-6,6.31-1.91C142.54,323.44,142.56,323.48,142.57,323.53Z" style="fill:#ffd2d4"/><path d="M150.84,333.83c-4.61,1.39-8.77,1.1-9.3-.64s2.78-4.28,7.39-5.68l.14,0c4.1-1.18,6,5,1.91,6.31Z" style="fill:#ffd2d4"/><path d="M135.07,338.59c4.61-1.39,7.92-3.94,7.39-5.68s-4.68-2-9.29-.63l-.14,0c-4.07,1.29-2.2,7.49,1.91,6.31Z" style="fill:#ffd2d4"/><path d="M142.83,343.83c1.3-4.64.92-8.8-.83-9.29s-4.22,2.87-5.52,7.51c0,.05,0,.09,0,.14-1.09,4.13,5.15,5.87,6.35,1.77Z" style="fill:#ffd2d4"/><path d="M147.28,342.48c-3.65-3.14-5.64-6.81-4.45-8.19s5.11,0,8.75,3.2l.11.09c3.2,2.84-1,7.74-4.3,5Z" style="fill:#ffd2d4"/><path d="M144.11,333.43a2.26,2.26,0,1,1-2.81-1.51A2.26,2.26,0,0,1,144.11,333.43Z" style="fill:#d15e79"/><path d="M141.32,349.43c6,4.72,9.39,10.38,7.61,12.64s-8.09.28-14.07-4.44S127.25,345,127.25,345,135.33,344.71,141.32,349.43Z" style="fill:#04d361;stroke:#04d361"/><path d="M162.34,356.57c-6.31,5.93-13.26,8.81-15.5,6.42s1.06-9.14,7.37-15.08,15.51-6.41,15.51-6.41S168.66,350.64,162.34,356.57Z" style="fill:#04d361;stroke:#04d361"/><polygon points="157.7 388.73 137.02 388.73 133.4 362.72 161.32 362.72 157.7 388.73" style="fill:#47248f"/><rect x="130.85" y="359.72" width="33.01" height="9.67" rx="1.47" style="fill:#47248f"/><polygon points="210.44 168.28 220.69 179.28 298.85 146.68 210.44 168.28" style="fill:#47248f"/><polygon points="214.09 132 206.37 143.64 211.59 155.06 199.88 157.05 189.53 179.76 301.35 145.92 214.09 132" style="fill:#9871f5"/><polygon points="211.59 155.06 206.37 143.64 266.94 146.48 211.59 155.06" style="fill:#47248f"/><path d="M205.7,267.91h-2.58a1.57,1.57,0,0,1-1.55-1.59,1.52,1.52,0,0,1,1.58-1.54c4.06,0,8.09,0,12.51-.21h.07a1.57,1.57,0,0,1,.06,3.13C212.25,267.84,209,267.91,205.7,267.91Zm-15.14-.61h-.14c-4.32-.37-8.56-.92-12.62-1.64a1.57,1.57,0,0,1-1.27-1.82,1.59,1.59,0,0,1,1.82-1.27c4,.71,8.12,1.25,12.34,1.61a1.57,1.57,0,0,1-.13,3.13Zm-24.74-4.53a1.51,1.51,0,0,1-.46-.07,89.6,89.6,0,0,1-11.94-4.59,1.57,1.57,0,1,1,1.33-2.84,89.58,89.58,0,0,0,11.53,4.44,1.55,1.55,0,0,1,1,2A1.57,1.57,0,0,1,165.82,262.77Zm-22.7-10.69a1.5,1.5,0,0,1-.86-.26,83.16,83.16,0,0,1-10.09-7.92,1.57,1.57,0,0,1,2.12-2.31,79.43,79.43,0,0,0,9.71,7.62,1.57,1.57,0,0,1,.43,2.17A1.55,1.55,0,0,1,143.12,252.08Zm-18.47-17a1.58,1.58,0,0,1-1.23-.59,84.26,84.26,0,0,1-7.19-10.62,1.57,1.57,0,1,1,2.72-1.55,80.75,80.75,0,0,0,6.93,10.21,1.58,1.58,0,0,1-.25,2.21A1.56,1.56,0,0,1,124.65,235.11ZM112.24,213.3a1.56,1.56,0,0,1-1.47-1,76.35,76.35,0,0,1-3.52-12.35,1.57,1.57,0,0,1,3.07-.61,74.26,74.26,0,0,0,3.38,11.85,1.56,1.56,0,0,1-.91,2A1.52,1.52,0,0,1,112.24,213.3Zm-5-24.59a1.57,1.57,0,0,1-1.56-1.47c-.17-2.56-.25-5.25-.25-8v-.63c0-1.36,0-2.73.07-4.1a1.57,1.57,0,0,1,1.57-1.51h.05a1.56,1.56,0,0,1,1.52,1.61c0,1.34-.07,2.68-.08,4v.63c0,2.69.09,5.32.24,7.81a1.57,1.57,0,0,1-1.46,1.67Z" style="fill:#47248f"/><path d="M120.42,163.86c-2.4,0-4.75,0-7.07-.09a1.57,1.57,0,0,1,0-3.13h0q6.07.15,12.53,0a1.48,1.48,0,0,1,1.59,1.54A1.56,1.56,0,0,1,126,163.8C124.13,163.84,122.26,163.86,120.42,163.86Zm18.15-.53a1.57,1.57,0,0,1-.09-3.13c4.06-.23,8.27-.53,12.52-.91a1.57,1.57,0,1,1,.27,3.12c-4.28.38-8.52.69-12.61.92Zm-37.75-.2h-.13c-4.36-.34-8.61-.8-12.62-1.38A1.55,1.55,0,0,1,86.75,160a1.58,1.58,0,0,1,1.77-1.33c3.94.56,8.12,1,12.42,1.35a1.57,1.57,0,0,1-.12,3.13Zm62.84-2a1.57,1.57,0,0,1-1.55-1.39,1.55,1.55,0,0,1,1.37-1.73q6.11-.72,12.45-1.62a1.57,1.57,0,0,1,.45,3.1q-6.39.91-12.54,1.63ZM75.9,159.52a1.37,1.37,0,0,1-.34,0c-3-.68-6-1.44-8.78-2.27q-1.78-.54-3.51-1.11a1.57,1.57,0,0,1,1-3c1.12.37,2.26.73,3.41,1.07,2.73.81,5.61,1.56,8.57,2.22a1.57,1.57,0,0,1-.34,3.1Zm-23.8-8.05a1.55,1.55,0,0,1-.69-.16,76,76,0,0,1-11.06-6.52,1.57,1.57,0,1,1,1.82-2.55,73.53,73.53,0,0,0,10.61,6.25,1.57,1.57,0,0,1-.68,3Zm54-1.4a1.57,1.57,0,0,1-1.57-1.57V148c0-4-.16-8-.47-11.94a1.57,1.57,0,1,1,3.12-.25c.32,4.05.48,8.15.48,12.19v.55A1.56,1.56,0,0,1,106.06,150.07ZM31.83,136.78a1.57,1.57,0,0,1-1.16-.51,55,55,0,0,1-7.53-10.51,1.57,1.57,0,0,1,2.75-1.51,51.1,51.1,0,0,0,7.1,9.9,1.57,1.57,0,0,1-1.16,2.63ZM104,124.93a1.57,1.57,0,0,1-1.55-1.3,105.65,105.65,0,0,0-2.76-12.11,1.56,1.56,0,1,1,3-.88,109.1,109.1,0,0,1,2.86,12.46,1.57,1.57,0,0,1-1.28,1.81A1.27,1.27,0,0,1,104,124.93Zm-84.23-10a1.57,1.57,0,0,1-1.51-1.15q-.29-1-.54-2.13a30.12,30.12,0,0,1-.84-7,26.9,26.9,0,0,1,.3-4,1.57,1.57,0,0,1,3.1.47,23.28,23.28,0,0,0-.27,3.55,27.26,27.26,0,0,0,.76,6.23q.24,1,.51,2a1.55,1.55,0,0,1-1.09,1.93A1.52,1.52,0,0,1,19.81,114.92Zm77-14.06a1.57,1.57,0,0,1-1.41-.89A53.07,53.07,0,0,0,88.93,89.6a1.56,1.56,0,0,1,2.44-2,56,56,0,0,1,6.81,11,1.56,1.56,0,0,1-.73,2.09A1.64,1.64,0,0,1,96.77,100.86ZM23.7,91a1.55,1.55,0,0,1-.95-.32,1.57,1.57,0,0,1-.29-2.2,35.46,35.46,0,0,1,9.81-8.67,1.57,1.57,0,0,1,1.64,2.68,32.31,32.31,0,0,0-9,7.89A1.55,1.55,0,0,1,23.7,91Zm57.22-9.32a1.52,1.52,0,0,1-.86-.26,35.69,35.69,0,0,0-11-4.75,1.57,1.57,0,1,1,.75-3,38.81,38.81,0,0,1,12,5.18,1.57,1.57,0,0,1-.86,2.88Zm-36.32-4a1.56,1.56,0,0,1-1.5-1.12,1.58,1.58,0,0,1,1.06-1.95,59.9,59.9,0,0,1,12.32-2.23H57A1.66,1.66,0,0,1,58.55,74,1.56,1.56,0,0,1,57,75.54l-.35,0a55.74,55.74,0,0,0-11.62,2.1A1.74,1.74,0,0,1,44.6,77.72Z" style="fill:#47248f"/><path d="M422.55,4.74h83.79a19,19,0,0,1,19,19V66.92a19,19,0,0,1-19,19H451.55l-19.71,17.39V85.88h-9.29a19,19,0,0,1-19-19V23.7A19,19,0,0,1,422.55,4.74Z" style="fill:#6842c2"/><path d="M434.74,31.48h59.41a2.38,2.38,0,1,0,0-4.75H434.74a2.38,2.38,0,0,0,0,4.75Z" style="fill:#fff"/><path d="M434.74,47.33h59.41a2.38,2.38,0,0,0,0-4.76H434.74a2.38,2.38,0,0,0,0,4.76Z" style="fill:#fff"/><path d="M485.44,63.17h8.71a2.38,2.38,0,0,0,0-4.76h-8.71a2.38,2.38,0,1,0,0,4.76Z" style="fill:#fff"/><path d="M465.63,63.17h8.72a2.38,2.38,0,0,0,0-4.76h-8.72a2.38,2.38,0,0,0,0,4.76Z" style="fill:#fff"/><path d="M434.74,63.17h19.81a2.38,2.38,0,0,0,0-4.76H434.74a2.38,2.38,0,0,0,0,4.76Z" style="fill:#fff"/><path d="M406.2,92.79H342.06a11.42,11.42,0,0,0-11.42,11.42v37a11.41,11.41,0,0,0,10.59,11.38L328,174.24l34.86-21.63H406.2a11.42,11.42,0,0,0,11.42-11.42v-37A11.42,11.42,0,0,0,406.2,92.79Z" style="fill:#6842c2"/><circle cx="374.13" cy="113.72" r="7.59" transform="translate(29.17 297.86) rotate(-45)" style="fill:#fff"/><path d="M392.08,139.27h-35.9a11.51,11.51,0,0,1,11.51-11.51h12.88a11.51,11.51,0,0,1,11.51,11.51Z" style="fill:#fff"/><g style="mix-blend-mode:multiply"><path d="M483.5,213.49l29.58-17.18a24.06,24.06,0,0,1,31.67,6.82l17.18,24.05a24.05,24.05,0,0,1-.61,28.79l-15.48,19.85A24,24,0,0,1,524.43,285l-28.74-2.91a24.06,24.06,0,0,1-21.5-21.41l-2.53-23.8A24.09,24.09,0,0,1,483.5,213.49Z" style="mix-blend-mode:multiply;fill:url(#linear-gradient)"/></g><path d="M529.87,243.18c-1.11-.66-2.55-1.4-3.85-.87-1,.41-1.64,2-2.28,2.77a1,1,0,0,1-1.24.27,17.41,17.41,0,0,1-8.7-7.44,1.08,1.08,0,0,1,.14-1.46,6,6,0,0,0,1.58-2.56,5.62,5.62,0,0,0-.71-3c-.52-1.13-1.11-2.74-2.24-3.37a3.06,3.06,0,0,0-3.33.49,6.77,6.77,0,0,0-2.35,5.36,8,8,0,0,0,.21,1.7,14.16,14.16,0,0,0,1.63,3.77c.53.89,1.09,1.75,1.71,2.59a26.28,26.28,0,0,0,7.39,6.86,22.39,22.39,0,0,0,4.61,2.19c1.8.6,3.41,1.22,5.36.85a6.51,6.51,0,0,0,4.87-3.62,3.1,3.1,0,0,0,.22-1.85C532.62,244.55,530.89,243.8,529.87,243.18Z" style="fill:#f7fafb"/><path d="M519.24,213a26.81,26.81,0,0,0-23.49,39.82l-3.9,14.55,14.62-3.92A26.84,26.84,0,1,0,519.24,213Zm0,48.63a21.67,21.67,0,0,1-11.12-3.08l-.92-.55L499,260.21l2.18-8.12-.57-.93a21.76,21.76,0,1,1,18.6,10.49Z" style="fill:#f7fafb"/></g></g></svg>