<?xml version="1.0" encoding="UTF-8" standalone="no"?>
<svg
   xmlns:dc="http://purl.org/dc/elements/1.1/"
   xmlns:cc="http://creativecommons.org/ns#"
   xmlns:rdf="http://www.w3.org/1999/02/22-rdf-syntax-ns#"
   xmlns:svg="http://www.w3.org/2000/svg"
   xmlns="http://www.w3.org/2000/svg"
   viewBox="0 0 320 73.333336"
   height="73.333336"
   width="320"
   xml:space="preserve"
   id="svg2"
   version="1.1"><metadata
     id="metadata8"><rdf:RDF><cc:Work
         rdf:about=""><dc:format>image/svg+xml</dc:format><dc:type
           rdf:resource="http://purl.org/dc/dcmitype/StillImage" /></cc:Work></rdf:RDF></metadata><defs
     id="defs6"><clipPath
       id="clipPath18"
       clipPathUnits="userSpaceOnUse"><path
         id="path16"
         d="M 0,55 H 240 V 0 H 0 Z" /></clipPath></defs><g
     transform="matrix(1.3333333,0,0,-1.3333333,0,73.333333)"
     id="g10"><g
       id="g12"><g
         clip-path="url(#clipPath18)"
         id="g14"><g
           transform="translate(52.3525,20.9238)"
           id="g20"><path
             id="path22"
             style="fill:#000000;fill-opacity:1;fill-rule:nonzero;stroke:none"
             d="M 0,0 H 10.243 L 5.122,13.211 Z m 13.211,-7.515 h -16.13 l -1.818,-4.691 c -0.241,-0.67 -0.719,-1.005 -1.533,-1.005 h -7.897 c -0.623,0 -0.91,0.48 -0.671,1.102 L -1.675,19.29 c 0.24,0.67 0.719,1.005 1.579,1.005 h 10.914 c 0.814,0 1.245,-0.335 1.532,-1.005 l 13.163,-31.399 c 0.239,-0.622 -0.049,-1.102 -0.623,-1.102 h -8.328 c -0.862,0 -1.292,0.335 -1.532,1.005 z" /></g><g
           transform="translate(88.3965,25.6147)"
           id="g24"><path
             id="path26"
             style="fill:#000000;fill-opacity:1;fill-rule:nonzero;stroke:none"
             d="m 0,0 h 12.397 c 2.776,0 3.207,0.431 3.207,2.729 v 2.44 c 0,2.298 -0.431,2.729 -3.207,2.729 L 0,7.898 Z m 25.272,7.945 v -7.993 c 0,-5.361 -2.392,-7.659 -7.993,-7.659 H 0 v -9.141 c 0,-0.67 -0.43,-1.054 -1.148,-1.054 h -7.419 c -0.718,0 -1.102,0.384 -1.102,1.054 v 31.399 c 0,0.67 0.384,1.053 1.102,1.053 h 25.846 c 5.601,0 7.993,-2.298 7.993,-7.659" /></g><g
           transform="translate(125.0361,15.4199)"
           id="g28"><path
             id="path30"
             style="fill:#000000;fill-opacity:1;fill-rule:nonzero;stroke:none"
             d="m 0,0 h 20.917 c 0.718,0 1.101,-0.383 1.101,-1.053 v -5.6 c 0,-0.67 -0.383,-1.054 -1.101,-1.054 H -8.567 c -0.718,0 -1.102,0.384 -1.102,1.054 v 31.399 c 0,0.67 0.384,1.053 1.102,1.053 h 7.419 C -0.431,25.799 0,25.416 0,24.746 Z" /></g><g
           transform="translate(158.0645,8.7666)"
           id="g32"><path
             id="path34"
             style="fill:#000000;fill-opacity:1;fill-rule:nonzero;stroke:none"
             d="m 0,0 c 0,-0.67 -0.431,-1.054 -1.148,-1.054 h -7.419 c -0.719,0 -1.102,0.384 -1.102,1.054 v 31.399 c 0,0.67 0.383,1.053 1.102,1.053 h 7.419 C -0.431,32.452 0,32.069 0,31.399 Z" /></g><g
           transform="translate(184.6299,7.7129)"
           id="g36"><path
             id="path38"
             style="fill:#000000;fill-opacity:1;fill-rule:nonzero;stroke:none"
             d="M 0,0 C -0.767,0 -1.245,0.24 -1.532,0.862 L -14.073,25.847 V 1.054 c 0,-0.67 -0.43,-1.054 -1.1,-1.054 h -6.702 c -0.717,0 -1.101,0.384 -1.101,1.054 v 31.399 c 0,0.67 0.384,1.053 1.101,1.053 h 12.589 c 0.765,0 1.244,-0.239 1.532,-0.861 L 4.786,7.61 v 24.843 c 0,0.67 0.432,1.053 1.149,1.053 h 6.653 c 0.719,0 1.101,-0.383 1.101,-1.053 V 1.054 C 13.689,0.384 13.307,0 12.588,0 Z" /></g><g
           transform="translate(224.7422,24.6099)"
           id="g40"><path
             id="path42"
             style="fill:#000000;fill-opacity:1;fill-rule:nonzero;stroke:none"
             d="m 0,0 14.071,-15.843 c 0.384,-0.431 0.144,-1.054 -0.43,-1.054 H 4.067 c -0.764,0 -1.148,0.191 -1.674,0.814 L -8.186,-3.686 h -4.929 v -12.157 c 0,-0.67 -0.431,-1.054 -1.149,-1.054 h -7.419 c -0.718,0 -1.101,0.384 -1.101,1.054 v 31.399 c 0,0.67 0.383,1.053 1.101,1.053 h 7.419 c 0.718,0 1.149,-0.383 1.149,-1.053 V 3.877 h 5.504 L 2.632,15.795 c 0.527,0.622 0.91,0.814 1.676,0.814 h 9.046 c 0.527,0 0.766,-0.574 0.382,-1.053 z" /></g><g
           transform="translate(38.2861,3.2158)"
           id="g44"><path
             id="path46"
             style="fill:#6842c2;fill-opacity:1;fill-rule:nonzero;stroke:none"
             d="m 0,0 c -2.183,-0.144 -4.222,0.628 -5.715,2.009 l -23.378,-1.566 -1.245,1.637 15.179,35.025 -7.981,-0.536 c -1.287,-1.925 -3.419,-3.254 -5.901,-3.419 -4.264,-0.277 -7.94,2.946 -8.229,7.199 -0.277,4.253 2.946,7.94 7.199,8.218 2.256,0.155 4.356,-0.68 5.87,-2.152 l 23.676,1.575 1.071,-1.771 -15.056,-34.963 7.415,0.495 c 1.266,2.06 3.47,3.49 6.065,3.666 C 3.234,15.694 6.91,12.472 7.199,8.218 7.477,3.965 4.254,0.278 0,0" /></g></g></g></g></svg>