<svg height="512" viewBox="0 0 58 58" width="512" xmlns="http://www.w3.org/2000/svg"><g id="Page-1" fill="none" fill-rule="evenodd"><g id="006---Call" fill-rule="nonzero"><path id="Shape" d="m58 29c.0007896 10.3528507-5.5175456 19.9209431-14.4790565 25.1048451-8.9615108 5.1839021-20.0068825 5.1973005-28.9809435.0351549h-.01l-13.27 3.82c-.35853367.095469-.74045398-.0154171-.99211393-.2880487-.25165995-.2726316-.33168696-.6621884-.20788607-1.0119513l4.62-11.85c-6.741401-10.3787707-6.15346141-23.8920206 1.46388574-33.6460655 7.61734716-9.75404484 20.58532216-13.59920023 32.28840876-9.57388863s19.5620529 15.03395573 19.5677055 27.40995413z" fill="#24ae5f"/><g fill="#fff"><path id="Shape" d="m50.353 17.007c-.349068.0005036-.6731357-.1810501-.855-.479-2.956887-4.8454228-7.5280189-8.49269668-12.909-10.3-.5246705-.17535041-.8078504-.74282949-.6325-1.2675s.7428295-.80785041 1.2675-.6325c5.8284209 1.95720187 10.7793756 5.9081211 13.981 11.157.1887933.308487.196303.6948743.019639 1.0104641-.176664.3155899-.5099665.511194-.871639.5115359z"/><path id="Shape" d="m49.051 34.6c1.1282505.1343765 1.9509363 1.1328801 1.867 2.266-.0877007 2.9231972-1.2559747 5.7100952-3.279 7.822-6.155 6.155-18.808 3.494-28.249-5.948s-12.1-22.094-5.948-28.249c2.1122115-2.0231721 4.8994751-3.19144994 7.823-3.279 1.132747-.08337572 2.1306333.73916448 2.265 1.867l.773 6.966c.0679606.6126009-.1606057 1.2208404-.615187 1.6370788-.4545813.4162383-1.080556.5904611-1.684813.4689212-.732596-.1610269-1.4907222.129562-1.928.739-2.655 3.9-1.134 10.484 3.772 15.39s11.492 6.42 15.393 3.769c.609438-.4372778.9000269-1.195404.739-1.928-.1215399-.604257.0526829-1.2302317.4689212-1.684813.4162384-.4545813 1.0244779-.6831476 1.6370788-.615187z"/></g></g></g></svg>